<svg xmlns="http://www.w3.org/2000/svg" width="128" height="128" viewBox="0 0 128 128">
  <path fill="#0074BD" d="M47.6 98.6s-6.8 4 4.8 5.3c14.1 1.6 21.3 1.4 36.8-1.6 0 0 4.1 2.6 9.8 4.8-34.8 14.9-78.8-.9-51.4-8.5z"/>
  <path fill="#0074BD" d="M44 85.1s-7.6 5.6 4 6.8c15 1.6 26.9 1.7 47.5-2.3 0 0 2.9 2.9 7.3 4.5-42.1 12.3-89 1-58.8-9z"/>
  <path fill="#EA2D2E" d="M69.1 61.5c8.5 9.8-2.2 18.6-2.2 18.6s21.6-11.1 11.7-25.1c-9.3-13-16.4-19.4 22.1-41.5.1 0-60.4 15.1-31.6 48z"/>
  <path fill="#0074BD" d="M102.4 108.7s5 4.1-5.5 7.3c-20 6-83.2 7.8-100.8.2-6.3-2.7 5.6-6.5 9.3-7.3 3.9-.8 6.1-.7 6.1-.7-7-4.9-45.3 9.7-19.4 13.9 70.5 11.7 128.6-5.2 110.3-13.4z"/>
  <path fill="#0074BD" d="M51.1 70.7s-32.1 7.6-11.4 10.4c8.8 1.2 26.3.9 42.6-.5 13.3-1.1 26.7-3.5 26.7-3.5s-4.7 2-8.1 4.3c-32.8 8.6-96.2 4.6-77.9-4.2 15.3-7.3 28.1-6.5 28.1-6.5z"/>
  <path fill="#0074BD" d="M92.3 95.3c33.3-17.3 17.9-33.9 7.2-31.7-2.7.5-3.9 1-3.9 1s1-1.6 2.9-2.3c21.9-7.7 38.7 22.7-6.9 34.7.1-.1.5-.5.7-.7z"/>
  <path fill="#EA2D2E" d="M76.1 1s18.5 18.5-17.5 46.9c-28.9 22.8-6.6 35.8 0 50.7-16.8-15.2-29.2-28.6-20.9-41.1C50 39.6 82.6 30.6 76.1 1z"/>
  <path fill="#0074BD" d="M52.4 127.3c32 2.1 81.1-1.2 82.3-16.7 0 0-2.2 5.8-26.4 10.3-27.2 5.1-60.9 4.5-80.8 1.2 0 .1 4.1 3.4 24.9 5.2z"/>
</svg>
