<svg xmlns="http://www.w3.org/2000/svg" width="128" height="128" viewBox="0 0 128 128">
  <path fill="#306998" d="M63.4 1.1C37.5 1.1 39.7 12.4 39.7 12.4l.03 11.7H64.2v3.5H24.8S1 24.6 1 51c0 26.3 20.8 25.4 20.8 25.4h12.4V64.4s-.7-12.4 12.2-12.4h21c11.8 0 21.3-9.7 21.3-21.3V12.5S91.5 1.1 63.4 1.1zM46.1 7.6c3.9 0 7.1 3.2 7.1 7.1 0 3.9-3.2 7.1-7.1 7.1-3.9 0-7.1-3.2-7.1-7.1 0-3.9 3.2-7.1 7.1-7.1z"/>
  <path fill="#FFD43B" d="M64.6 127c26 0 23.7-11.3 23.7-11.3l-.03-11.7H63.8v-3.5h39.5s23.7 3 23.7-23.3c0-26.3-20.8-25.4-20.8-25.4H93.8v12s.7 12.4-12.2 12.4h-21c-11.8 0-21.3 9.7-21.3 21.3v18.2S36.5 127 64.6 127zM81.9 120.5c-3.9 0-7.1-3.2-7.1-7.1 0-3.9 3.2-7.1 7.1-7.1 3.9 0 7.1 3.2 7.1 7.1 0 3.9-3.2 7.1-7.1 7.1z"/>
</svg>
